<?xml version="1.0" standalone="no"?>
<svg xmlns="http://www.w3.org/2000/svg"
 width="272.000000pt" height="136.000000pt" viewBox="0 0 272.000000 136.000000"
 preserveAspectRatio="xMidYMid meet">
<g transform="translate(0.000000,136.000000) scale(0.100000,-0.100000)"
fill="white" stroke="none">
<path d="M1090 1337 c-38 -19 -31 -41 15 -50 126 -26 148 -44 148 -119 0 -56
-27 -78 -98 -78 -43 0 -59 5 -90 30 -42 34 -60 37 -69 14 -11 -29 26 -70 99
-110 12 -7 21 -24 23 -42 7 -65 2 -65 -184 -7 -256 79 -267 81 -320 60 -47
-18 -76 -48 -67 -71 7 -18 32 -18 76 1 45 19 85 12 275 -49 154 -50 297 -72
387 -60 106 13 198 79 166 118 -11 13 -21 10 -78 -20 -53 -28 -76 -34 -124
-34 l-59 0 0 46 c0 41 3 46 33 59 107 45 132 191 45 272 -50 47 -129 65 -178
40z"/>
<path d="M1654 922 c-118 -42 -184 -133 -192 -263 -4 -67 -1 -83 23 -138 51
-112 130 -160 266 -161 76 0 93 3 148 31 70 35 124 97 142 163 16 60 7 183
-18 231 -65 125 -231 187 -369 137z m182 -68 c97 -40 146 -108 147 -203 1
-103 -49 -171 -158 -217 -92 -38 -208 10 -278 116 -21 31 -23 146 -3 193 15
37 75 93 120 113 43 18 126 17 172 -2z"/>
<path d="M2233 933 l-23 -4 0 -280 0 -279 41 0 42 0 -8 246 -7 247 84 -5 c99
-5 143 -25 172 -79 14 -26 17 -44 12 -73 -11 -59 -41 -82 -116 -89 -35 -4 -65
-9 -68 -12 -8 -8 29 -57 92 -124 72 -75 139 -111 209 -111 47 0 48 1 45 28 -2
23 -9 28 -43 36 -69 15 -91 26 -135 71 l-42 43 36 17 c61 29 107 132 91 204
-9 41 -86 125 -132 144 -39 15 -209 29 -250 20z"/>
<path d="M696 859 c-3 -34 -6 -158 -6 -275 l0 -214 37 0 36 0 -6 258 c-3 141
-8 265 -12 275 -4 9 -15 17 -25 17 -14 0 -18 -12 -24 -61z"/>
<path d="M217 805 c-26 -58 -47 -112 -47 -120 0 -29 39 -14 73 27 l35 42 46
-92 c25 -50 46 -96 46 -102 0 -6 -36 -10 -92 -10 l-93 0 41 25 c45 27 61 52
44 69 -12 12 -91 -6 -125 -28 -26 -17 -130 -220 -121 -235 11 -17 51 -13 68 7
9 9 23 34 31 54 l16 38 134 0 135 0 12 -30 c23 -56 49 -80 85 -80 l33 0 -51
118 c-70 159 -200 415 -213 419 -6 2 -32 -44 -57 -102z"/>
<path d="M1131 801 c-7 -12 -11 -99 -11 -225 l0 -206 35 0 35 0 -1 198 c-1
108 -4 208 -8 222 -9 31 -36 38 -50 11z"/>
</g>
</svg>
